%TF.GenerationSoftware,KiCad,Pcbnew,10.0.5*%
%TF.CreationDate,2026-09-28T19:38:38-06:00*%
%TF.ProjectId,IxTL-074_v.1.0.6,4978544c-2d30-4373-945f-762e312e302e,rev?*%
%TF.SameCoordinates,Original*%
%TF.FileFunction,Soldermask,Bot*%
%TF.FilePolarity,Negative*%
%FSLAX46Y46*%
G04 Gerber Fmt 4.6, Leading zero omitted, Abs format (unit mm)*
G04 Created by KiCad (PCBNEW 10.0.5) date 2026-09-28 19:38:38*
%MOMM*%
%LPD*%
G01*
G04 APERTURE LIST*
G04 Aperture macros list*
%AMRoundRect*
0 Rectangle with rounded corners*
0 $1 Rounding radius*
0 $2 $3 $4 $5 $6 $7 $8 $9 X,Y pos of 4 corners*
0 Add a 4 corners polygon primitive as box body*
4,1,4,$2,$3,$4,$5,$6,$7,$8,$9,$2,$3,0*
0 Add four circle primitives for the rounded corners*
1,1,$1+$1,$2,$3*
1,1,$1+$1,$4,$5*
1,1,$1+$1,$6,$7*
1,1,$1+$1,$8,$9*
0 Add four rect primitives between the rounded corners*
20,1,$1+$1,$2,$3,$4,$5,0*
20,1,$1+$1,$4,$5,$6,$7,0*
20,1,$1+$1,$6,$7,$8,$9,0*
20,1,$1+$1,$8,$9,$2,$3,0*%
G04 Aperture macros list end*
%ADD10C,1.600000*%
%ADD11C,1.700000*%
%ADD12R,1.700000X1.700000*%
%ADD13RoundRect,0.250000X-0.550000X-0.550000X0.550000X-0.550000X0.550000X0.550000X-0.550000X0.550000X0*%
%ADD14R,1.600000X2.400000*%
%ADD15O,1.600000X2.400000*%
%ADD16R,1.270000X1.270000*%
%ADD17C,1.270000*%
%ADD18C,4.000000*%
%ADD19C,1.800000*%
%ADD20RoundRect,0.250000X0.550000X0.550000X-0.550000X0.550000X-0.550000X-0.550000X0.550000X-0.550000X0*%
%ADD21R,1.500000X1.500000*%
%ADD22C,1.500000*%
%ADD23O,3.500000X2.500000*%
%ADD24O,2.500000X3.500000*%
%ADD25O,1.500000X3.000000*%
%ADD26O,3.100000X2.100000*%
%ADD27O,4.000000X2.000000*%
%ADD28O,2.000000X4.000000*%
%ADD29O,4.600000X2.300000*%
%ADD30R,1.400000X1.800000*%
%ADD31O,1.400000X1.800000*%
G04 APERTURE END LIST*
D10*
%TO.C,R17*%
X152500000Y-80000000D03*
X152500000Y-90160000D03*
%TD*%
D11*
%TO.C,J5*%
X144960000Y-85040000D03*
X147500000Y-85040000D03*
X144960000Y-82500000D03*
D12*
X147500000Y-82500000D03*
%TD*%
D10*
%TO.C,R18*%
X157040000Y-90160000D03*
X157040000Y-80000000D03*
%TD*%
D13*
%TO.C,C1*%
X130000000Y-110000000D03*
D10*
X132500000Y-110000000D03*
%TD*%
D14*
%TO.C,U1*%
X139880000Y-115000000D03*
D15*
X142420000Y-115000000D03*
X144960000Y-115000000D03*
X147500000Y-115000000D03*
X150040000Y-115000000D03*
X152580000Y-115000000D03*
X155120000Y-115000000D03*
X155120000Y-107380000D03*
X152580000Y-107380000D03*
X150040000Y-107380000D03*
X147500000Y-107380000D03*
X144960000Y-107380000D03*
X142420000Y-107380000D03*
X139880000Y-107380000D03*
%TD*%
D14*
%TO.C,U2*%
X139840000Y-127500000D03*
D15*
X142380000Y-127500000D03*
X144920000Y-127500000D03*
X147460000Y-127500000D03*
X150000000Y-127500000D03*
X152540000Y-127500000D03*
X155080000Y-127500000D03*
X155080000Y-119880000D03*
X152540000Y-119880000D03*
X150000000Y-119880000D03*
X147460000Y-119880000D03*
X144920000Y-119880000D03*
X142380000Y-119880000D03*
X139840000Y-119880000D03*
%TD*%
D10*
%TO.C,R5*%
X185040000Y-111530000D03*
X185040000Y-101370000D03*
%TD*%
D16*
%TO.C,SW1*%
X100000000Y-93999780D03*
D17*
X97500000Y-93999780D03*
X95000000Y-93999780D03*
%TD*%
D10*
%TO.C,R20*%
X140000000Y-80000000D03*
X140000000Y-90160000D03*
%TD*%
D18*
%TO.C,R7*%
X190600000Y-105500000D03*
X199400000Y-105500000D03*
D19*
X192500000Y-112500000D03*
X195000000Y-112500000D03*
X197500000Y-112500000D03*
%TD*%
D12*
%TO.C,J2*%
X112500000Y-87500000D03*
D11*
X109960000Y-87500000D03*
X112500000Y-90040000D03*
X109960000Y-90040000D03*
X112500000Y-92580000D03*
X109960000Y-92580000D03*
%TD*%
D10*
%TO.C,R9*%
X110000000Y-129030000D03*
X110000000Y-118870000D03*
%TD*%
D20*
%TO.C,C9*%
X196262112Y-90466946D03*
D10*
X193762112Y-90466946D03*
%TD*%
D13*
%TO.C,C7*%
X162500000Y-125000000D03*
D10*
X165000000Y-125000000D03*
%TD*%
D18*
%TO.C,R21*%
X190600000Y-77000000D03*
X199400000Y-77000000D03*
D19*
X192500000Y-84000000D03*
X195000000Y-84000000D03*
X197500000Y-84000000D03*
%TD*%
D10*
%TO.C,R12*%
X172500000Y-95000000D03*
X172500000Y-84840000D03*
%TD*%
D21*
%TO.C,Q1*%
X129983123Y-95944695D03*
D22*
X132523123Y-95944695D03*
X135063123Y-95944695D03*
%TD*%
D23*
%TO.C,J6*%
X166590087Y-69546263D03*
D24*
X162090087Y-73046263D03*
D25*
X171590087Y-77846263D03*
D26*
X162390087Y-80646263D03*
D24*
X169090087Y-76146263D03*
%TD*%
D10*
%TO.C,R4*%
X105000000Y-95000000D03*
X105000000Y-84840000D03*
%TD*%
%TO.C,R24*%
X152580000Y-95811683D03*
X142420000Y-95811683D03*
%TD*%
D18*
%TO.C,R3*%
X115600000Y-105500000D03*
X124400000Y-105500000D03*
D19*
X117500000Y-112500000D03*
X120000000Y-112500000D03*
X122500000Y-112500000D03*
%TD*%
D12*
%TO.C,J1*%
X112540000Y-72460000D03*
D11*
X110000000Y-72460000D03*
X112540000Y-75000000D03*
X110000000Y-75000000D03*
X112540000Y-77540000D03*
X110000000Y-77540000D03*
%TD*%
D18*
%TO.C,R15*%
X190640000Y-123000000D03*
X199440000Y-123000000D03*
D19*
X192540000Y-130000000D03*
X195040000Y-130000000D03*
X197540000Y-130000000D03*
%TD*%
D13*
%TO.C,C5*%
X130000000Y-125000000D03*
D10*
X132500000Y-125000000D03*
%TD*%
%TO.C,C4*%
X112500000Y-97500000D03*
X110000000Y-97500000D03*
%TD*%
%TO.C,C6*%
X180000000Y-82500000D03*
X177500000Y-82500000D03*
%TD*%
%TO.C,R19*%
X135460000Y-80000000D03*
X135460000Y-90160000D03*
%TD*%
%TO.C,R23*%
X167500000Y-85000000D03*
X167500000Y-95160000D03*
%TD*%
%TO.C,R22*%
X199946508Y-96551781D03*
X189786508Y-96551781D03*
%TD*%
%TO.C,C2*%
X110000000Y-82500000D03*
X112500000Y-82500000D03*
%TD*%
%TO.C,R16*%
X184960000Y-95000000D03*
X184960000Y-84840000D03*
%TD*%
D18*
%TO.C,R10*%
X95600000Y-123000000D03*
X104400000Y-123000000D03*
D19*
X97500000Y-130000000D03*
X100000000Y-130000000D03*
X102500000Y-130000000D03*
%TD*%
D27*
%TO.C,J7*%
X97500000Y-75424736D03*
D28*
X92801000Y-78472736D03*
D29*
X97500000Y-81393736D03*
%TD*%
D12*
%TO.C,J4*%
X179960000Y-87459999D03*
D11*
X177420000Y-87459999D03*
X179960000Y-89999999D03*
X177420000Y-89999999D03*
X179960000Y-92539999D03*
X177420000Y-92539999D03*
%TD*%
D18*
%TO.C,R11*%
X115600000Y-123000000D03*
X124400000Y-123000000D03*
D19*
X117500000Y-130000000D03*
X120000000Y-130000000D03*
X122500000Y-130000000D03*
%TD*%
D10*
%TO.C,C8*%
X180000000Y-97500000D03*
X177500000Y-97500000D03*
%TD*%
D30*
%TO.C,LED1*%
X124960000Y-85000000D03*
D31*
X127500000Y-85000000D03*
%TD*%
D10*
%TO.C,R8*%
X117500000Y-95080000D03*
X117500000Y-84920000D03*
%TD*%
%TO.C,R1*%
X110000000Y-101370000D03*
X110000000Y-111530000D03*
%TD*%
D12*
%TO.C,J3*%
X180000000Y-72500000D03*
D11*
X177460000Y-72500000D03*
X180000000Y-75040000D03*
X177460000Y-75040000D03*
X180000000Y-77580000D03*
X177460000Y-77580000D03*
%TD*%
D18*
%TO.C,R14*%
X170640000Y-123000000D03*
X179440000Y-123000000D03*
D19*
X172540000Y-130000000D03*
X175040000Y-130000000D03*
X177540000Y-130000000D03*
%TD*%
D18*
%TO.C,R2*%
X95600000Y-105500000D03*
X104400000Y-105500000D03*
D19*
X97500000Y-112500000D03*
X100000000Y-112500000D03*
X102500000Y-112500000D03*
%TD*%
D10*
%TO.C,C10*%
X146150683Y-103124650D03*
X148650683Y-103124650D03*
%TD*%
%TO.C,R13*%
X185000000Y-129030000D03*
X185000000Y-118870000D03*
%TD*%
D13*
%TO.C,C3*%
X162500000Y-109880000D03*
D10*
X165000000Y-109880000D03*
%TD*%
D18*
%TO.C,R6*%
X170640000Y-105590000D03*
X179440000Y-105590000D03*
D19*
X172540000Y-112590000D03*
X175040000Y-112590000D03*
X177540000Y-112590000D03*
%TD*%
M02*
