%TF.GenerationSoftware,KiCad,Pcbnew,10.0.5*%
%TF.CreationDate,2026-09-28T19:38:38-06:00*%
%TF.ProjectId,IxTL-074_v.1.0.6,4978544c-2d30-4373-945f-762e312e302e,rev?*%
%TF.SameCoordinates,Original*%
%TF.FileFunction,Copper,L1,Top*%
%TF.FilePolarity,Positive*%
%FSLAX46Y46*%
G04 Gerber Fmt 4.6, Leading zero omitted, Abs format (unit mm)*
G04 Created by KiCad (PCBNEW 10.0.5) date 2026-09-28 19:38:38*
%MOMM*%
%LPD*%
G01*
G04 APERTURE LIST*
G04 Aperture macros list*
%AMRoundRect*
0 Rectangle with rounded corners*
0 $1 Rounding radius*
0 $2 $3 $4 $5 $6 $7 $8 $9 X,Y pos of 4 corners*
0 Add a 4 corners polygon primitive as box body*
4,1,4,$2,$3,$4,$5,$6,$7,$8,$9,$2,$3,0*
0 Add four circle primitives for the rounded corners*
1,1,$1+$1,$2,$3*
1,1,$1+$1,$4,$5*
1,1,$1+$1,$6,$7*
1,1,$1+$1,$8,$9*
0 Add four rect primitives between the rounded corners*
20,1,$1+$1,$2,$3,$4,$5,0*
20,1,$1+$1,$4,$5,$6,$7,0*
20,1,$1+$1,$6,$7,$8,$9,0*
20,1,$1+$1,$8,$9,$2,$3,0*%
G04 Aperture macros list end*
%TA.AperFunction,ComponentPad*%
%ADD10C,1.600000*%
%TD*%
%TA.AperFunction,ComponentPad*%
%ADD11C,1.700000*%
%TD*%
%TA.AperFunction,ComponentPad*%
%ADD12R,1.700000X1.700000*%
%TD*%
%TA.AperFunction,ComponentPad*%
%ADD13RoundRect,0.250000X-0.550000X-0.550000X0.550000X-0.550000X0.550000X0.550000X-0.550000X0.550000X0*%
%TD*%
%TA.AperFunction,ComponentPad*%
%ADD14R,1.600000X2.400000*%
%TD*%
%TA.AperFunction,ComponentPad*%
%ADD15O,1.600000X2.400000*%
%TD*%
%TA.AperFunction,ComponentPad*%
%ADD16R,1.270000X1.270000*%
%TD*%
%TA.AperFunction,ComponentPad*%
%ADD17C,1.270000*%
%TD*%
%TA.AperFunction,WasherPad*%
%ADD18C,4.000000*%
%TD*%
%TA.AperFunction,ComponentPad*%
%ADD19C,1.800000*%
%TD*%
%TA.AperFunction,ComponentPad*%
%ADD20RoundRect,0.250000X0.550000X0.550000X-0.550000X0.550000X-0.550000X-0.550000X0.550000X-0.550000X0*%
%TD*%
%TA.AperFunction,ComponentPad*%
%ADD21R,1.500000X1.500000*%
%TD*%
%TA.AperFunction,ComponentPad*%
%ADD22C,1.500000*%
%TD*%
%TA.AperFunction,ComponentPad*%
%ADD23O,3.500000X2.500000*%
%TD*%
%TA.AperFunction,ComponentPad*%
%ADD24O,2.500000X3.500000*%
%TD*%
%TA.AperFunction,ComponentPad*%
%ADD25O,1.500000X3.000000*%
%TD*%
%TA.AperFunction,ComponentPad*%
%ADD26O,3.100000X2.100000*%
%TD*%
%TA.AperFunction,ComponentPad*%
%ADD27O,4.000000X2.000000*%
%TD*%
%TA.AperFunction,ComponentPad*%
%ADD28O,2.000000X4.000000*%
%TD*%
%TA.AperFunction,ComponentPad*%
%ADD29O,4.600000X2.300000*%
%TD*%
%TA.AperFunction,ComponentPad*%
%ADD30R,1.400000X1.800000*%
%TD*%
%TA.AperFunction,ComponentPad*%
%ADD31O,1.400000X1.800000*%
%TD*%
%TA.AperFunction,ViaPad*%
%ADD32C,0.650000*%
%TD*%
%TA.AperFunction,Conductor*%
%ADD33C,0.500000*%
%TD*%
%TA.AperFunction,Conductor*%
%ADD34C,1.000000*%
%TD*%
%TA.AperFunction,Conductor*%
%ADD35C,0.800000*%
%TD*%
G04 APERTURE END LIST*
D10*
%TO.P,R17,1*%
%TO.N,Net-(R17-Pad1)*%
X152500000Y-80000000D03*
%TO.P,R17,2*%
%TO.N,Net-(J5-Pad3)*%
X152500000Y-90160000D03*
%TD*%
D11*
%TO.P,J5,4*%
%TO.N,Net-(J5-Pad4)*%
X144960000Y-85040000D03*
%TO.P,J5,3*%
%TO.N,Net-(J5-Pad3)*%
X147500000Y-85040000D03*
%TO.P,J5,2*%
%TO.N,Net-(J5-Pad2)*%
X144960000Y-82500000D03*
D12*
%TO.P,J5,1*%
%TO.N,Net-(J5-Pad1)*%
X147500000Y-82500000D03*
%TD*%
D10*
%TO.P,R18,2*%
%TO.N,Net-(J5-Pad1)*%
X157040000Y-90160000D03*
%TO.P,R18,1*%
%TO.N,Net-(R17-Pad1)*%
X157040000Y-80000000D03*
%TD*%
D13*
%TO.P,C1,1*%
%TO.N,Net-(U1-F)*%
X130000000Y-110000000D03*
D10*
%TO.P,C1,2*%
%TO.N,GND*%
X132500000Y-110000000D03*
%TD*%
D14*
%TO.P,U1,1,A_1*%
%TO.N,Net-(U1-A)*%
X139880000Y-115000000D03*
D15*
%TO.P,U1,2,G=\u002AA_2*%
%TO.N,Net-(U1-G=\u002AA)*%
X142420000Y-115000000D03*
%TO.P,U1,3,B_3*%
%TO.N,GND*%
X144960000Y-115000000D03*
%TO.P,U1,4,H=\u002AB_4*%
%TO.N,unconnected-(U1-H=\u002AB-Pad4)*%
X147500000Y-115000000D03*
%TO.P,U1,5,C_5*%
%TO.N,Net-(U1-C)*%
X150040000Y-115000000D03*
%TO.P,U1,6,I=\u002AC_6*%
%TO.N,Net-(U1-I=\u002AC)*%
X152580000Y-115000000D03*
%TO.P,U1,7,VSS_7*%
%TO.N,GND*%
X155120000Y-115000000D03*
%TO.P,U1,8,J=\u002AD_8*%
%TO.N,Net-(U1-J=\u002AD)*%
X155120000Y-107380000D03*
%TO.P,U1,9,D_9*%
%TO.N,Net-(U1-D)*%
X152580000Y-107380000D03*
%TO.P,U1,10,K=\u002AE_10*%
%TO.N,unconnected-(U1-K=\u002AE-Pad10)*%
X150040000Y-107380000D03*
%TO.P,U1,11,E_11*%
%TO.N,GND*%
X147500000Y-107380000D03*
%TO.P,U1,12,L=\u002AF_12*%
%TO.N,Net-(U1-L=\u002AF)*%
X144960000Y-107380000D03*
%TO.P,U1,13,F_13*%
%TO.N,Net-(U1-F)*%
X142420000Y-107380000D03*
%TO.P,U1,14,VDD_14*%
%TO.N,+9V*%
X139880000Y-107380000D03*
%TD*%
D14*
%TO.P,U2,1*%
%TO.N,Net-(U2A--)*%
X139840000Y-127500000D03*
D15*
%TO.P,U2,2,-_2*%
X142380000Y-127500000D03*
%TO.P,U2,3,+_3*%
%TO.N,Net-(U2A-+)*%
X144920000Y-127500000D03*
%TO.P,U2,4,V+_4*%
%TO.N,+9V*%
X147460000Y-127500000D03*
%TO.P,U2,5,+_5*%
%TO.N,Net-(U2B-+)*%
X150000000Y-127500000D03*
%TO.P,U2,6,-_6*%
%TO.N,Net-(U2B--)*%
X152540000Y-127500000D03*
%TO.P,U2,7*%
X155080000Y-127500000D03*
%TO.P,U2,8*%
%TO.N,Net-(U2C--)*%
X155080000Y-119880000D03*
%TO.P,U2,9,-_9*%
X152540000Y-119880000D03*
%TO.P,U2,10,+_10*%
%TO.N,Net-(U2C-+)*%
X150000000Y-119880000D03*
%TO.P,U2,11,V-_11*%
%TO.N,GND*%
X147460000Y-119880000D03*
%TO.P,U2,12,+_12*%
%TO.N,Net-(U2D-+)*%
X144920000Y-119880000D03*
%TO.P,U2,13,-_13*%
%TO.N,Net-(U2D--)*%
X142380000Y-119880000D03*
%TO.P,U2,14*%
X139840000Y-119880000D03*
%TD*%
D10*
%TO.P,R5,1*%
%TO.N,Net-(R5-Pad1)*%
X185040000Y-111530000D03*
%TO.P,R5,2*%
%TO.N,Net-(U1-J=\u002AD)*%
X185040000Y-101370000D03*
%TD*%
D16*
%TO.P,SW1,1,A_1*%
%TO.N,+9V*%
X100000000Y-93999780D03*
D17*
%TO.P,SW1,2,B_2*%
%TO.N,Net-(SW1-B)*%
X97500000Y-93999780D03*
%TO.P,SW1,3,C_3*%
%TO.N,unconnected-(SW1-C-Pad3)*%
X95000000Y-93999780D03*
%TD*%
D10*
%TO.P,R20,1*%
%TO.N,Net-(R17-Pad1)*%
X140000000Y-80000000D03*
%TO.P,R20,2*%
%TO.N,Net-(J5-Pad4)*%
X140000000Y-90160000D03*
%TD*%
D18*
%TO.P,R7,*%
%TO.N,*%
X190600000Y-105500000D03*
X199400000Y-105500000D03*
D19*
%TO.P,R7,1,1_1*%
%TO.N,GND*%
X192500000Y-112500000D03*
%TO.P,R7,2,2_2*%
%TO.N,Net-(U2C-+)*%
X195000000Y-112500000D03*
%TO.P,R7,3,3_3*%
%TO.N,Net-(U1-J=\u002AD)*%
X197500000Y-112500000D03*
%TD*%
D12*
%TO.P,J2,1*%
%TO.N,Net-(C4-Pad2)*%
X112500000Y-87500000D03*
D11*
%TO.P,J2,2*%
%TO.N,Net-(C2-Pad2)*%
X109960000Y-87500000D03*
%TO.P,J2,3*%
%TO.N,Net-(C4-Pad2)*%
X112500000Y-90040000D03*
%TO.P,J2,4*%
%TO.N,Net-(C2-Pad2)*%
X109960000Y-90040000D03*
%TO.P,J2,5*%
%TO.N,Net-(C4-Pad2)*%
X112500000Y-92580000D03*
%TO.P,J2,6*%
%TO.N,Net-(C2-Pad2)*%
X109960000Y-92580000D03*
%TD*%
D10*
%TO.P,R9,1*%
%TO.N,Net-(U1-G=\u002AA)*%
X110000000Y-129030000D03*
%TO.P,R9,2*%
%TO.N,Net-(R10-Pad2)*%
X110000000Y-118870000D03*
%TD*%
D20*
%TO.P,C9,1*%
%TO.N,Net-(C9-Pad1)*%
X196262112Y-90466946D03*
D10*
%TO.P,C9,2*%
%TO.N,Net-(C9-Pad2)*%
X193762112Y-90466946D03*
%TD*%
D13*
%TO.P,C7,1*%
%TO.N,Net-(U1-C)*%
X162500000Y-125000000D03*
D10*
%TO.P,C7,2*%
%TO.N,GND*%
X165000000Y-125000000D03*
%TD*%
D18*
%TO.P,R21,*%
%TO.N,*%
X190600000Y-77000000D03*
X199400000Y-77000000D03*
D19*
%TO.P,R21,1,1_1*%
%TO.N,GND*%
X192500000Y-84000000D03*
%TO.P,R21,2,2_2*%
%TO.N,Net-(C9-Pad1)*%
X195000000Y-84000000D03*
%TO.P,R21,3,3_3*%
%TO.N,Net-(R17-Pad1)*%
X197500000Y-84000000D03*
%TD*%
D10*
%TO.P,R12,1*%
%TO.N,Net-(U1-A)*%
X172500000Y-95000000D03*
%TO.P,R12,2*%
%TO.N,Net-(C6-Pad2)*%
X172500000Y-84840000D03*
%TD*%
D21*
%TO.P,Q1,1,E_1*%
%TO.N,GND*%
X129983123Y-95944695D03*
D22*
%TO.P,Q1,2,B_2*%
%TO.N,Net-(Q1-B)*%
X132523123Y-95944695D03*
%TO.P,Q1,3,C_3*%
%TO.N,Net-(LED1-K)*%
X135063123Y-95944695D03*
%TD*%
D23*
%TO.P,J6,1*%
%TO.N,GND*%
X166590087Y-69546263D03*
D24*
%TO.P,J6,2*%
%TO.N,Net-(C9-Pad2)*%
X162090087Y-73046263D03*
D25*
%TO.P,J6,3*%
X171590087Y-77846263D03*
D26*
%TO.P,J6,4*%
%TO.N,unconnected-(J6-Pad4)*%
X162390087Y-80646263D03*
D24*
%TO.P,J6,5*%
%TO.N,unconnected-(J6-Pad5)*%
X169090087Y-76146263D03*
%TD*%
D10*
%TO.P,R4,1*%
%TO.N,Net-(U1-F)*%
X105000000Y-95000000D03*
%TO.P,R4,2*%
%TO.N,Net-(C2-Pad1)*%
X105000000Y-84840000D03*
%TD*%
%TO.P,R24,1*%
%TO.N,+9V*%
X152580000Y-95811683D03*
%TO.P,R24,2*%
%TO.N,Net-(LED1-A)*%
X142420000Y-95811683D03*
%TD*%
D18*
%TO.P,R3,*%
%TO.N,*%
X115600000Y-105500000D03*
X124400000Y-105500000D03*
D19*
%TO.P,R3,1,1_1*%
%TO.N,GND*%
X117500000Y-112500000D03*
%TO.P,R3,2,2_2*%
%TO.N,Net-(U2D-+)*%
X120000000Y-112500000D03*
%TO.P,R3,3,3_3*%
%TO.N,Net-(U1-L=\u002AF)*%
X122500000Y-112500000D03*
%TD*%
D12*
%TO.P,J1,1*%
%TO.N,Net-(U2C--)*%
X112540000Y-72460000D03*
D11*
%TO.P,J1,2*%
%TO.N,Net-(U2D--)*%
X110000000Y-72460000D03*
%TO.P,J1,3*%
%TO.N,Net-(U2C--)*%
X112540000Y-75000000D03*
%TO.P,J1,4*%
%TO.N,Net-(U2D--)*%
X110000000Y-75000000D03*
%TO.P,J1,5*%
%TO.N,Net-(U2C--)*%
X112540000Y-77540000D03*
%TO.P,J1,6*%
%TO.N,Net-(U2D--)*%
X110000000Y-77540000D03*
%TD*%
D18*
%TO.P,R15,*%
%TO.N,*%
X190640000Y-123000000D03*
X199440000Y-123000000D03*
D19*
%TO.P,R15,1,1_1*%
%TO.N,GND*%
X192540000Y-130000000D03*
%TO.P,R15,2,2_2*%
%TO.N,Net-(U2B-+)*%
X195040000Y-130000000D03*
%TO.P,R15,3,3_3*%
%TO.N,Net-(U1-I=\u002AC)*%
X197540000Y-130000000D03*
%TD*%
D13*
%TO.P,C5,1*%
%TO.N,Net-(U1-A)*%
X130000000Y-125000000D03*
D10*
%TO.P,C5,2*%
%TO.N,GND*%
X132500000Y-125000000D03*
%TD*%
%TO.P,C4,1*%
%TO.N,Net-(C4-Pad1)*%
X112500000Y-97500000D03*
%TO.P,C4,2*%
%TO.N,Net-(C4-Pad2)*%
X110000000Y-97500000D03*
%TD*%
%TO.P,C6,1*%
%TO.N,Net-(C6-Pad1)*%
X180000000Y-82500000D03*
%TO.P,C6,2*%
%TO.N,Net-(C6-Pad2)*%
X177500000Y-82500000D03*
%TD*%
%TO.P,R19,1*%
%TO.N,Net-(R17-Pad1)*%
X135460000Y-80000000D03*
%TO.P,R19,2*%
%TO.N,Net-(J5-Pad2)*%
X135460000Y-90160000D03*
%TD*%
%TO.P,R23,1*%
%TO.N,Net-(C9-Pad1)*%
X167500000Y-85000000D03*
%TO.P,R23,2*%
%TO.N,Net-(Q1-B)*%
X167500000Y-95160000D03*
%TD*%
%TO.P,R22,1*%
%TO.N,GND*%
X199946508Y-96551781D03*
%TO.P,R22,2*%
%TO.N,Net-(C9-Pad2)*%
X189786508Y-96551781D03*
%TD*%
%TO.P,C2,1*%
%TO.N,Net-(C2-Pad1)*%
X110000000Y-82500000D03*
%TO.P,C2,2*%
%TO.N,Net-(C2-Pad2)*%
X112500000Y-82500000D03*
%TD*%
%TO.P,R16,1*%
%TO.N,Net-(U1-C)*%
X184960000Y-95000000D03*
%TO.P,R16,2*%
%TO.N,Net-(C8-Pad1)*%
X184960000Y-84840000D03*
%TD*%
D18*
%TO.P,R10,*%
%TO.N,*%
X95600000Y-123000000D03*
X104400000Y-123000000D03*
D19*
%TO.P,R10,1,1_1*%
%TO.N,unconnected-(R10-Pad1)*%
X97500000Y-130000000D03*
%TO.P,R10,2,2_2*%
%TO.N,Net-(R10-Pad2)*%
X100000000Y-130000000D03*
%TO.P,R10,3,3_3*%
%TO.N,Net-(U1-A)*%
X102500000Y-130000000D03*
%TD*%
D27*
%TO.P,J7,GND,GND_GND*%
%TO.N,GND*%
X97500000Y-75424736D03*
D28*
%TO.P,J7,GNDBREAK,GNDBREAK_GNDBREAK*%
%TO.N,unconnected-(J7-PadGNDBREAK)*%
X92801000Y-78472736D03*
D29*
%TO.P,J7,PWR,PWR_PWR*%
%TO.N,Net-(SW1-B)*%
X97500000Y-81393736D03*
%TD*%
D12*
%TO.P,J4,1*%
%TO.N,Net-(C8-Pad2)*%
X179960000Y-87459999D03*
D11*
%TO.P,J4,2*%
%TO.N,Net-(C6-Pad1)*%
X177420000Y-87459999D03*
%TO.P,J4,3*%
%TO.N,Net-(C8-Pad2)*%
X179960000Y-89999999D03*
%TO.P,J4,4*%
%TO.N,Net-(C6-Pad1)*%
X177420000Y-89999999D03*
%TO.P,J4,5*%
%TO.N,Net-(C8-Pad2)*%
X179960000Y-92539999D03*
%TO.P,J4,6*%
%TO.N,Net-(C6-Pad1)*%
X177420000Y-92539999D03*
%TD*%
D18*
%TO.P,R11,*%
%TO.N,*%
X115600000Y-123000000D03*
X124400000Y-123000000D03*
D19*
%TO.P,R11,1,1_1*%
%TO.N,GND*%
X117500000Y-130000000D03*
%TO.P,R11,2,2_2*%
%TO.N,Net-(U2A-+)*%
X120000000Y-130000000D03*
%TO.P,R11,3,3_3*%
%TO.N,Net-(U1-G=\u002AA)*%
X122500000Y-130000000D03*
%TD*%
D10*
%TO.P,C8,1*%
%TO.N,Net-(C8-Pad1)*%
X180000000Y-97500000D03*
%TO.P,C8,2*%
%TO.N,Net-(C8-Pad2)*%
X177500000Y-97500000D03*
%TD*%
D30*
%TO.P,LED1,1,K_1*%
%TO.N,Net-(LED1-K)*%
X124960000Y-85000000D03*
D31*
%TO.P,LED1,2,A_2*%
%TO.N,Net-(LED1-A)*%
X127500000Y-85000000D03*
%TD*%
D10*
%TO.P,R8,1*%
%TO.N,Net-(U1-D)*%
X117500000Y-95080000D03*
%TO.P,R8,2*%
%TO.N,Net-(C4-Pad1)*%
X117500000Y-84920000D03*
%TD*%
%TO.P,R1,1*%
%TO.N,Net-(U1-L=\u002AF)*%
X110000000Y-101370000D03*
%TO.P,R1,2*%
%TO.N,Net-(R1-Pad2)*%
X110000000Y-111530000D03*
%TD*%
D12*
%TO.P,J3,1*%
%TO.N,Net-(U2B--)*%
X180000000Y-72500000D03*
D11*
%TO.P,J3,2*%
%TO.N,Net-(U2A--)*%
X177460000Y-72500000D03*
%TO.P,J3,3*%
%TO.N,Net-(U2B--)*%
X180000000Y-75040000D03*
%TO.P,J3,4*%
%TO.N,Net-(U2A--)*%
X177460000Y-75040000D03*
%TO.P,J3,5*%
%TO.N,Net-(U2B--)*%
X180000000Y-77580000D03*
%TO.P,J3,6*%
%TO.N,Net-(U2A--)*%
X177460000Y-77580000D03*
%TD*%
D18*
%TO.P,R14,*%
%TO.N,*%
X170640000Y-123000000D03*
X179440000Y-123000000D03*
D19*
%TO.P,R14,1,1_1*%
%TO.N,unconnected-(R14-Pad1)*%
X172540000Y-130000000D03*
%TO.P,R14,2,2_2*%
%TO.N,Net-(R13-Pad1)*%
X175040000Y-130000000D03*
%TO.P,R14,3,3_3*%
%TO.N,Net-(U1-C)*%
X177540000Y-130000000D03*
%TD*%
D18*
%TO.P,R2,*%
%TO.N,*%
X95600000Y-105500000D03*
X104400000Y-105500000D03*
D19*
%TO.P,R2,1,1_1*%
%TO.N,unconnected-(R2-Pad1)*%
X97500000Y-112500000D03*
%TO.P,R2,2,2_2*%
%TO.N,Net-(R1-Pad2)*%
X100000000Y-112500000D03*
%TO.P,R2,3,3_3*%
%TO.N,Net-(U1-F)*%
X102500000Y-112500000D03*
%TD*%
D10*
%TO.P,C10,1*%
%TO.N,+9V*%
X146150683Y-103124650D03*
%TO.P,C10,2*%
%TO.N,GND*%
X148650683Y-103124650D03*
%TD*%
%TO.P,R13,1*%
%TO.N,Net-(R13-Pad1)*%
X185000000Y-129030000D03*
%TO.P,R13,2*%
%TO.N,Net-(U1-I=\u002AC)*%
X185000000Y-118870000D03*
%TD*%
D13*
%TO.P,C3,1*%
%TO.N,Net-(U1-D)*%
X162500000Y-109880000D03*
D10*
%TO.P,C3,2*%
%TO.N,GND*%
X165000000Y-109880000D03*
%TD*%
D18*
%TO.P,R6,*%
%TO.N,*%
X170640000Y-105590000D03*
X179440000Y-105590000D03*
D19*
%TO.P,R6,1,1_1*%
%TO.N,unconnected-(R6-Pad1)*%
X172540000Y-112590000D03*
%TO.P,R6,2,2_2*%
%TO.N,Net-(R5-Pad1)*%
X175040000Y-112590000D03*
%TO.P,R6,3,3_3*%
%TO.N,Net-(U1-D)*%
X177540000Y-112590000D03*
%TD*%
D32*
%TO.N,Net-(U1-A)*%
X129955039Y-120550783D03*
X156209483Y-111420072D03*
X130000000Y-117500000D03*
X161122011Y-106451720D03*
%TO.N,Net-(U1-G=\u002AA)*%
X135711907Y-118666717D03*
X135014105Y-121771937D03*
%TO.N,Net-(U1-I=\u002AC)*%
X156688725Y-113250000D03*
X161700000Y-114071330D03*
%TO.N,Net-(U1-J=\u002AD)*%
X155000000Y-102500000D03*
X172445306Y-100781412D03*
%TO.N,Net-(U1-D)*%
X142500000Y-105000000D03*
X137500000Y-105000000D03*
X152619135Y-110438995D03*
%TO.N,Net-(U2A--)*%
X162500000Y-102500000D03*
X157943854Y-106504497D03*
%TO.N,Net-(U2C--)*%
X136464660Y-124254289D03*
X131493056Y-102500000D03*
%TO.N,Net-(U2C-+)*%
X165966595Y-116545613D03*
X156923078Y-116545613D03*
%TO.N,Net-(U2D--)*%
X137738218Y-119114942D03*
X136836442Y-108937766D03*
%TO.N,Net-(C9-Pad2)*%
X171561910Y-73615677D03*
%TD*%
%TO.N,Net-(J5-Pad2)*%
D33*
X135460000Y-90160000D02*
X143120000Y-82500000D01*
X144960000Y-82500000D02*
X143120000Y-82500000D01*
%TO.N,Net-(J5-Pad1)*%
X149380000Y-82500000D02*
X157040000Y-90160000D01*
X147500000Y-82500000D02*
X149380000Y-82500000D01*
%TO.N,Net-(R17-Pad1)*%
X135460000Y-80000000D02*
X157040000Y-80000000D01*
%TO.N,Net-(U1-F)*%
X100000000Y-107500000D02*
X102500000Y-110000000D01*
X130000000Y-106718462D02*
X123162852Y-99881314D01*
X130000000Y-110000000D02*
X130000000Y-106718462D01*
X142420000Y-107774202D02*
X138703653Y-111490549D01*
X142420000Y-107380000D02*
X142420000Y-107774202D01*
X105000000Y-97500000D02*
X100000000Y-102500000D01*
X102618686Y-99881314D02*
X101492294Y-101007706D01*
X105000000Y-95000000D02*
X105000000Y-97500000D01*
X123162852Y-99881314D02*
X102618686Y-99881314D01*
X102500000Y-110000000D02*
X102500000Y-112500000D01*
X131490549Y-111490549D02*
X130000000Y-110000000D01*
X138703653Y-111490549D02*
X131490549Y-111490549D01*
X100000000Y-102500000D02*
X100000000Y-107500000D01*
%TO.N,Net-(U1-A)*%
X139880000Y-114258955D02*
X139880000Y-115000000D01*
X130000000Y-125000000D02*
X130000000Y-120595744D01*
X128610830Y-126389170D02*
X130000000Y-125000000D01*
X172500000Y-95073731D02*
X161122011Y-106451720D01*
X106110830Y-126389170D02*
X128610830Y-126389170D01*
X155968913Y-111660642D02*
X148292571Y-111660642D01*
X130000000Y-120595744D02*
X129955039Y-120550783D01*
X141606060Y-112532895D02*
X139880000Y-114258955D01*
X132500000Y-115000000D02*
X139880000Y-115000000D01*
X148292571Y-111660642D02*
X147420318Y-112532895D01*
X102500000Y-130000000D02*
X106110830Y-126389170D01*
X172500000Y-95000000D02*
X172500000Y-95073731D01*
X147420318Y-112532895D02*
X141606060Y-112532895D01*
X156209483Y-111420072D02*
X155968913Y-111660642D01*
X130000000Y-117500000D02*
X132500000Y-115000000D01*
%TO.N,Net-(U1-G=\u002AA)*%
X135000000Y-121786042D02*
X135014105Y-121771937D01*
X110000000Y-129030000D02*
X110985842Y-128044158D01*
X120544158Y-128044158D02*
X122500000Y-130000000D01*
X142792233Y-115000000D02*
X142420000Y-115000000D01*
X142420000Y-116071589D02*
X140991589Y-117500000D01*
X136878624Y-117500000D02*
X140991589Y-117500000D01*
X142420000Y-115000000D02*
X142420000Y-116071589D01*
X135000000Y-127500000D02*
X135000000Y-121786042D01*
X135711907Y-118666717D02*
X136878624Y-117500000D01*
X110985842Y-128044158D02*
X120544158Y-128044158D01*
X132500000Y-130000000D02*
X135000000Y-127500000D01*
X122500000Y-130000000D02*
X132500000Y-130000000D01*
%TO.N,Net-(U1-C)*%
X179290000Y-131750000D02*
X200015016Y-131750000D01*
X198726903Y-99309120D02*
X189269120Y-99309120D01*
X175790000Y-131750000D02*
X169250000Y-131750000D01*
X200015016Y-131750000D02*
X203338355Y-128426661D01*
X203338355Y-103920572D02*
X198726903Y-99309120D01*
X177540000Y-130000000D02*
X175790000Y-131750000D01*
X177540000Y-130000000D02*
X179290000Y-131750000D01*
X203338355Y-128426661D02*
X203338355Y-103920572D01*
X189269120Y-99309120D02*
X184960000Y-95000000D01*
X169250000Y-131750000D02*
X162500000Y-125000000D01*
%TO.N,Net-(U1-I=\u002AC)*%
X197540000Y-130000000D02*
X197540000Y-126703853D01*
X185000000Y-118870000D02*
X193055598Y-118870000D01*
X152580000Y-115000000D02*
X154365566Y-113214434D01*
X154365566Y-113214434D02*
X156688725Y-113214434D01*
X195041760Y-124205613D02*
X195041760Y-120856162D01*
X156688725Y-113214434D02*
X156688725Y-113250000D01*
X197540000Y-126703853D02*
X195041760Y-124205613D01*
X185000000Y-118870000D02*
X166498670Y-118870000D01*
X166498670Y-118870000D02*
X161700000Y-114071330D01*
X193055598Y-118870000D02*
X195041760Y-120856162D01*
%TO.N,Net-(U1-J=\u002AD)*%
X195000000Y-107500000D02*
X197500000Y-110000000D01*
X185040000Y-101370000D02*
X173033894Y-101370000D01*
X195000000Y-105422914D02*
X195000000Y-107500000D01*
X197500000Y-110000000D02*
X197500000Y-112500000D01*
X185040000Y-101370000D02*
X190947086Y-101370000D01*
X190947086Y-101370000D02*
X195000000Y-105422914D01*
X173033894Y-101370000D02*
X172445306Y-100781412D01*
X155000000Y-107260000D02*
X155120000Y-107380000D01*
X155000000Y-102500000D02*
X155000000Y-107260000D01*
%TO.N,Net-(U1-D)*%
X152619135Y-110438995D02*
X152619135Y-107419135D01*
X124732447Y-97500000D02*
X132232447Y-105000000D01*
X117500000Y-95080000D02*
X119920000Y-97500000D01*
X152580000Y-106540000D02*
X152580000Y-107380000D01*
X142500000Y-105000000D02*
X151040000Y-105000000D01*
X132232447Y-105000000D02*
X137500000Y-105000000D01*
X151040000Y-105000000D02*
X152580000Y-106540000D01*
X175130000Y-115000000D02*
X177540000Y-112590000D01*
X167500000Y-115000000D02*
X167500000Y-114880000D01*
X119920000Y-97500000D02*
X124732447Y-97500000D01*
X152619135Y-107419135D02*
X152580000Y-107380000D01*
X167500000Y-114880000D02*
X162500000Y-109880000D01*
X167500000Y-115000000D02*
X175130000Y-115000000D01*
%TO.N,Net-(U1-L=\u002AF)*%
X120000000Y-107500000D02*
X122500000Y-110000000D01*
X120000000Y-104322060D02*
X120000000Y-107500000D01*
X144960000Y-109236345D02*
X144960000Y-107380000D01*
X122500000Y-110000000D02*
X122500000Y-112500000D01*
X122500000Y-112500000D02*
X139602938Y-112500000D01*
X143896417Y-110299928D02*
X144960000Y-109236345D01*
X141803010Y-110299928D02*
X143896417Y-110299928D01*
X117047940Y-101370000D02*
X120000000Y-104322060D01*
X141803010Y-110299928D02*
X139602938Y-112500000D01*
X110000000Y-101370000D02*
X117047940Y-101370000D01*
%TO.N,+9V*%
D34*
X131585700Y-100470818D02*
X145000000Y-100470818D01*
X101474119Y-73525881D02*
X105522498Y-69477502D01*
X152580000Y-97890818D02*
X152580000Y-95811683D01*
D35*
X146150683Y-103124650D02*
X141875350Y-103124650D01*
D34*
X114093483Y-69477502D02*
X116533405Y-71917424D01*
X150000000Y-100470818D02*
X155000000Y-100470818D01*
D35*
X139880000Y-105120000D02*
X139880000Y-107380000D01*
X156408538Y-100470818D02*
X159218860Y-103281140D01*
D34*
X145000000Y-100470818D02*
X147500000Y-100470818D01*
X121587827Y-90472945D02*
X131585700Y-100470818D01*
D35*
X141875350Y-103124650D02*
X139880000Y-105120000D01*
D33*
X147460000Y-127500000D02*
X147500000Y-127500000D01*
D35*
X155815850Y-125000000D02*
X148558707Y-125000000D01*
D34*
X147500000Y-100470818D02*
X150000000Y-100470818D01*
D35*
X155000000Y-100470818D02*
X156408538Y-100470818D01*
D34*
X145000000Y-100470818D02*
X146150683Y-101621501D01*
X121587827Y-84087827D02*
X121587827Y-90472945D01*
D35*
X148558707Y-125000000D02*
X147460000Y-126098707D01*
D34*
X101474119Y-92525661D02*
X101474119Y-73525881D01*
D35*
X159218860Y-121596990D02*
X155815850Y-125000000D01*
X147460000Y-126098707D02*
X147460000Y-127500000D01*
D34*
X146150683Y-101621501D02*
X146150683Y-103124650D01*
X100000000Y-93999780D02*
X101474119Y-92525661D01*
X116533405Y-71917424D02*
X116533405Y-79033405D01*
X105522498Y-69477502D02*
X114093483Y-69477502D01*
X150000000Y-100470818D02*
X152580000Y-97890818D01*
X116533405Y-79033405D02*
X121587827Y-84087827D01*
D35*
X159218860Y-103281140D02*
X159218860Y-121596990D01*
%TO.N,Net-(U2A--)*%
D33*
X142380000Y-127500000D02*
X139840000Y-127500000D01*
X177500000Y-72500000D02*
X177460000Y-72540000D01*
X177460000Y-72540000D02*
X177460000Y-77580000D01*
X163134873Y-102500000D02*
X162500000Y-102500000D01*
X154933289Y-123477827D02*
X157943854Y-120467262D01*
X177460000Y-77580000D02*
X174611538Y-80428462D01*
X157943854Y-120467262D02*
X157943854Y-106504497D01*
X139840000Y-126529175D02*
X141369175Y-125000000D01*
X141369175Y-125000000D02*
X146153973Y-125000000D01*
X147676146Y-123477827D02*
X154933289Y-123477827D01*
X169555588Y-96079285D02*
X163134873Y-102500000D01*
X172418508Y-80428462D02*
X169555588Y-83291382D01*
X139840000Y-127500000D02*
X139840000Y-126529175D01*
X177460000Y-72500000D02*
X177500000Y-72500000D01*
X174611538Y-80428462D02*
X172418508Y-80428462D01*
X146153973Y-125000000D02*
X147676146Y-123477827D01*
X169555588Y-83291382D02*
X169555588Y-96079285D01*
%TO.N,Net-(U2A-+)*%
X144920000Y-129330000D02*
X144920000Y-127500000D01*
X142500000Y-131750000D02*
X144920000Y-129330000D01*
X120000000Y-130000000D02*
X120000000Y-131272792D01*
X120000000Y-131272792D02*
X120477208Y-131750000D01*
X120477208Y-131750000D02*
X142500000Y-131750000D01*
%TO.N,Net-(U2B-+)*%
X169059168Y-126800000D02*
X165438612Y-123179444D01*
X165438612Y-123179444D02*
X161815481Y-123179444D01*
X161815481Y-123179444D02*
X159281922Y-125713003D01*
X155515010Y-130591136D02*
X151751514Y-130591136D01*
X191840000Y-126800000D02*
X169059168Y-126800000D01*
X151751514Y-130591136D02*
X150000000Y-128839622D01*
X159281922Y-125713003D02*
X159281922Y-126824224D01*
X150000000Y-128839622D02*
X150000000Y-127500000D01*
X195040000Y-130000000D02*
X191840000Y-126800000D01*
X159281922Y-126824224D02*
X155515010Y-130591136D01*
%TO.N,Net-(U2B--)*%
X155398521Y-127500000D02*
X160587926Y-122310595D01*
X170555339Y-83691246D02*
X171746585Y-82500000D01*
X179583890Y-80074890D02*
X176914060Y-80074890D01*
X180000000Y-79658780D02*
X179583890Y-80074890D01*
X165910811Y-103816852D02*
X167121075Y-103816852D01*
X180000000Y-77580000D02*
X180000000Y-79658780D01*
X170555339Y-87643197D02*
X170555339Y-83691246D01*
X167121075Y-103816852D02*
X174694222Y-96243705D01*
X160587926Y-122310595D02*
X160587926Y-109139737D01*
X155080000Y-127500000D02*
X155398521Y-127500000D01*
X171746585Y-82500000D02*
X174488950Y-82500000D01*
X180000000Y-72500000D02*
X180000000Y-77580000D01*
X160587926Y-109139737D02*
X165910811Y-103816852D01*
X174694222Y-91782080D02*
X170555339Y-87643197D01*
X179408950Y-77580000D02*
X180000000Y-77580000D01*
X176914060Y-80074890D02*
X174488950Y-82500000D01*
X152540000Y-127500000D02*
X155080000Y-127500000D01*
X174694222Y-96243705D02*
X174694222Y-91782080D01*
%TO.N,Net-(U2C--)*%
X145103303Y-123857345D02*
X146867761Y-122092887D01*
X155080000Y-120265538D02*
X155080000Y-119880000D01*
X119595697Y-90602641D02*
X119595697Y-84595697D01*
X112540000Y-72460000D02*
X112540000Y-77540000D01*
X152540000Y-119880000D02*
X155080000Y-119880000D01*
X146867761Y-122092887D02*
X153252652Y-122092887D01*
X138138766Y-124254289D02*
X138535710Y-123857345D01*
X136464660Y-124254289D02*
X138138766Y-124254289D01*
X119595697Y-84595697D02*
X112540000Y-77540000D01*
X138535710Y-123857345D02*
X145103303Y-123857345D01*
X153252652Y-122092887D02*
X155080000Y-120265538D01*
X131493056Y-102500000D02*
X119595697Y-90602641D01*
%TO.N,Net-(U2C-+)*%
X190954387Y-116545613D02*
X165966595Y-116545613D01*
X156923078Y-116545613D02*
X155968691Y-117500000D01*
X155968691Y-117500000D02*
X151056401Y-117500000D01*
X151056401Y-117500000D02*
X150000000Y-118556401D01*
X150000000Y-118556401D02*
X150000000Y-119880000D01*
X195000000Y-112500000D02*
X190954387Y-116545613D01*
%TO.N,Net-(U2D-+)*%
X144920000Y-121565286D02*
X144920000Y-119880000D01*
X137500000Y-122500000D02*
X143985286Y-122500000D01*
X123604890Y-118604890D02*
X133604890Y-118604890D01*
X120000000Y-112500000D02*
X120000000Y-115000000D01*
X143985286Y-122500000D02*
X144920000Y-121565286D01*
X133604890Y-118604890D02*
X137500000Y-122500000D01*
X120000000Y-115000000D02*
X123604890Y-118604890D01*
%TO.N,Net-(U2D--)*%
X124313356Y-99055965D02*
X134195157Y-108937766D01*
X107500000Y-90887920D02*
X107500000Y-97844535D01*
X102902300Y-86290220D02*
X107500000Y-90887920D01*
X138503276Y-119880000D02*
X137738218Y-119114942D01*
X105259829Y-82280171D02*
X103916426Y-82280171D01*
X110000000Y-77540000D02*
X105259829Y-82280171D01*
X139840000Y-119880000D02*
X138503276Y-119880000D01*
X103916426Y-82280171D02*
X102902300Y-83294297D01*
X108711430Y-99055965D02*
X124313356Y-99055965D01*
X134195157Y-108937766D02*
X136836442Y-108937766D01*
X110000000Y-72460000D02*
X110000000Y-77540000D01*
X107500000Y-97844535D02*
X108711430Y-99055965D01*
X139840000Y-119880000D02*
X142380000Y-119880000D01*
X102902300Y-83294297D02*
X102902300Y-86290220D01*
%TO.N,Net-(R5-Pad1)*%
X175040000Y-110970454D02*
X176520470Y-109489984D01*
X175040000Y-112590000D02*
X175040000Y-110970454D01*
X176520470Y-109489984D02*
X182999984Y-109489984D01*
X185040000Y-111530000D02*
X182999984Y-109489984D01*
%TO.N,Net-(SW1-B)*%
D34*
X97500000Y-81393736D02*
X97500000Y-93999780D01*
%TO.N,Net-(R17-Pad1)*%
D33*
X162529654Y-77192899D02*
X160307101Y-77192899D01*
X160307101Y-77192899D02*
X157500000Y-80000000D01*
X196387717Y-80154815D02*
X196387717Y-71474327D01*
X197500000Y-84500000D02*
X197477362Y-84477362D01*
X193163390Y-68250000D02*
X171472553Y-68250000D01*
X196387717Y-71474327D02*
X193163390Y-68250000D01*
X197477362Y-81244460D02*
X196387717Y-80154815D01*
X171472553Y-68250000D02*
X162529654Y-77192899D01*
X197477362Y-84477362D02*
X197477362Y-81244460D01*
%TO.N,Net-(J5-Pad4)*%
X140000000Y-90000000D02*
X140000000Y-90160000D01*
X144960000Y-85040000D02*
X140000000Y-90000000D01*
%TO.N,Net-(C4-Pad2)*%
X110000000Y-95545541D02*
X110000000Y-97500000D01*
X112500000Y-90040000D02*
X112500000Y-87500000D01*
X112500000Y-93045541D02*
X110000000Y-95545541D01*
X112500000Y-90040000D02*
X112500000Y-93045541D01*
%TO.N,Net-(C2-Pad2)*%
X109960000Y-85040000D02*
X112500000Y-82500000D01*
X109960000Y-87500000D02*
X109960000Y-85040000D01*
X109960000Y-92580000D02*
X109960000Y-87500000D01*
%TO.N,Net-(R10-Pad2)*%
X103630000Y-118870000D02*
X100000000Y-122500000D01*
X100000000Y-122500000D02*
X100000000Y-130000000D01*
X110000000Y-118870000D02*
X103630000Y-118870000D01*
%TO.N,Net-(C9-Pad1)*%
X195000000Y-87500000D02*
X196262112Y-88762112D01*
X195000000Y-84880000D02*
X195000000Y-87500000D01*
X166523650Y-75041101D02*
X166523650Y-82500000D01*
X166523650Y-82500000D02*
X167500000Y-83476350D01*
X188313377Y-69225626D02*
X172347469Y-69225626D01*
X194052532Y-83052532D02*
X194052532Y-74956437D01*
X196262112Y-88762112D02*
X196262112Y-90466946D01*
X172347469Y-69217282D02*
X166523650Y-75041101D01*
X167500000Y-83476350D02*
X167500000Y-85000000D01*
X194052532Y-74956437D02*
X188313377Y-69217282D01*
X195000000Y-84000000D02*
X194052532Y-83052532D01*
%TO.N,Net-(C9-Pad2)*%
X182701251Y-70201251D02*
X175000000Y-70201251D01*
X171590087Y-73611164D02*
X171590087Y-77846263D01*
X193762112Y-90466946D02*
X185000000Y-81704834D01*
X171561910Y-73615677D02*
X171585574Y-73615677D01*
X175000000Y-70201251D02*
X171590087Y-73611164D01*
X185000000Y-81704834D02*
X185000000Y-72500000D01*
X189786508Y-96551781D02*
X189786508Y-94442550D01*
X171585574Y-73615677D02*
X171590087Y-73611164D01*
X185000000Y-72500000D02*
X182701251Y-70201251D01*
X171590087Y-77846263D02*
X171590087Y-78409913D01*
X189786508Y-94442550D02*
X193762112Y-90466946D01*
X193762112Y-90466946D02*
X193762112Y-90456231D01*
%TO.N,Net-(C6-Pad2)*%
X177500000Y-82522240D02*
X175182541Y-84839699D01*
X175182541Y-84839699D02*
X172500301Y-84839699D01*
X177500000Y-82500000D02*
X177500000Y-82522240D01*
X177420000Y-82580000D02*
X177500000Y-82500000D01*
X172500301Y-84839699D02*
X172500000Y-84840000D01*
%TO.N,Net-(Q1-B)*%
X154145958Y-93605249D02*
X149090025Y-93605249D01*
X167500000Y-95160000D02*
X167500000Y-95000000D01*
X149090025Y-93605249D02*
X145097637Y-97597637D01*
X167500000Y-95000000D02*
X155540709Y-95000000D01*
X155540709Y-95000000D02*
X154145958Y-93605249D01*
X145097637Y-97597637D02*
X134176065Y-97597637D01*
X132523123Y-95944695D02*
X134176065Y-97597637D01*
%TO.N,Net-(LED1-K)*%
X124960000Y-85000000D02*
X125000000Y-85000000D01*
X125000000Y-85384294D02*
X135063123Y-95447417D01*
X125000000Y-85000000D02*
X125000000Y-85384294D01*
X135063123Y-95447417D02*
X135063123Y-95944695D01*
%TO.N,Net-(C2-Pad1)*%
X110000000Y-82500000D02*
X107340000Y-82500000D01*
X107340000Y-82500000D02*
X105000000Y-84840000D01*
%TO.N,Net-(J5-Pad1)*%
X157500000Y-90000000D02*
X157500000Y-90160000D01*
%TO.N,Net-(J5-Pad2)*%
X135000000Y-90160000D02*
X135076100Y-90160000D01*
%TO.N,Net-(J5-Pad3)*%
X152521834Y-90138166D02*
X152500000Y-90160000D01*
X152500000Y-90040000D02*
X152500000Y-90160000D01*
X147500000Y-85040000D02*
X152500000Y-90040000D01*
%TO.N,Net-(LED1-A)*%
X137853593Y-95811683D02*
X127500000Y-85458090D01*
X142420000Y-95811683D02*
X137853593Y-95811683D01*
X127500000Y-85458090D02*
X127500000Y-85000000D01*
%TO.N,Net-(C4-Pad1)*%
X115040176Y-93408222D02*
X115040176Y-87379824D01*
X112500000Y-97500000D02*
X112500000Y-95948398D01*
X112500000Y-95948398D02*
X115040176Y-93408222D01*
X115040176Y-87379824D02*
X117500000Y-84920000D01*
%TO.N,Net-(C6-Pad1)*%
X177420000Y-87460000D02*
X177513963Y-87366037D01*
X177420000Y-92540000D02*
X177420000Y-87460000D01*
X177513963Y-87366037D02*
X177513963Y-84986037D01*
X177513963Y-84986037D02*
X180000000Y-82500000D01*
%TO.N,Net-(C8-Pad1)*%
X182500000Y-95000000D02*
X182500000Y-87300000D01*
X180000000Y-97500000D02*
X182500000Y-95000000D01*
X179960000Y-97460000D02*
X180000000Y-97500000D01*
X182500000Y-87300000D02*
X184960000Y-84840000D01*
%TO.N,Net-(C8-Pad2)*%
X179960000Y-92540000D02*
X179960000Y-93059215D01*
X179960000Y-93059215D02*
X177500000Y-95519215D01*
X179960000Y-87460000D02*
X179960000Y-92540000D01*
X177500000Y-95519215D02*
X177500000Y-97500000D01*
%TO.N,Net-(R1-Pad2)*%
X100000000Y-114452841D02*
X100000000Y-112500000D01*
X106530000Y-115000000D02*
X100547159Y-115000000D01*
X100547159Y-115000000D02*
X100000000Y-114452841D01*
X110000000Y-111530000D02*
X106530000Y-115000000D01*
%TO.N,Net-(R13-Pad1)*%
X177001209Y-128038791D02*
X175040000Y-130000000D01*
X184008791Y-128038791D02*
X177001209Y-128038791D01*
X185000000Y-129030000D02*
X184008791Y-128038791D01*
%TD*%
M02*
