M48
; DRILL file KiCad 10.0.5 date 2026-09-28T19:38:44
; FORMAT={-:-/ absolute / metric / decimal}
; #@! TF.CreationDate,2026-09-28T19:38:44-06:00
; #@! TF.GenerationSoftware,Kicad,Pcbnew,10.0.5
; #@! TF.FileFunction,Plated,1,2,PTH
FMAT,2
METRIC
; #@! TA.AperFunction,Plated,PTH,ViaDrill
T1C0.300
; #@! TA.AperFunction,Plated,PTH,ComponentDrill
T2C0.762
; #@! TA.AperFunction,Plated,PTH,ComponentDrill
T3C0.800
; #@! TA.AperFunction,Plated,PTH,ComponentDrill
T4C1.000
%
G90
G05
T1
X129.955Y-120.551
X130.0Y-117.5
X131.493Y-102.5
X135.014Y-121.772
X135.712Y-118.667
X136.465Y-124.254
X136.836Y-108.938
X137.5Y-105.0
X137.738Y-119.115
X142.5Y-105.0
X152.619Y-110.439
X155.0Y-102.5
X156.209Y-111.42
X156.689Y-113.25
X156.923Y-116.546
X157.944Y-106.504
X161.122Y-106.452
X161.7Y-114.071
X162.5Y-102.5
X165.967Y-116.546
X171.562Y-73.616
X172.445Y-100.781
T2
X95.0Y-94.0
X97.5Y-94.0
X100.0Y-94.0
T3
X105.0Y-84.84
X105.0Y-95.0
X110.0Y-82.5
X110.0Y-97.5
X110.0Y-101.37
X110.0Y-111.53
X110.0Y-118.87
X110.0Y-129.03
X112.5Y-82.5
X112.5Y-97.5
X117.5Y-84.92
X117.5Y-95.08
X124.96Y-85.0
X127.5Y-85.0
X129.983Y-95.945
X130.0Y-110.0
X130.0Y-125.0
X132.5Y-110.0
X132.5Y-125.0
X132.523Y-95.945
X135.063Y-95.945
X135.46Y-80.0
X135.46Y-90.16
X139.84Y-119.88
X139.84Y-127.5
X139.88Y-107.38
X139.88Y-115.0
X140.0Y-80.0
X140.0Y-90.16
X142.38Y-119.88
X142.38Y-127.5
X142.42Y-95.812
X142.42Y-107.38
X142.42Y-115.0
X144.92Y-119.88
X144.92Y-127.5
X144.96Y-107.38
X144.96Y-115.0
X146.151Y-103.125
X147.46Y-119.88
X147.46Y-127.5
X147.5Y-107.38
X147.5Y-115.0
X148.651Y-103.125
X150.0Y-119.88
X150.0Y-127.5
X150.04Y-107.38
X150.04Y-115.0
X152.5Y-80.0
X152.5Y-90.16
X152.54Y-119.88
X152.54Y-127.5
X152.58Y-95.812
X152.58Y-107.38
X152.58Y-115.0
X155.08Y-119.88
X155.08Y-127.5
X155.12Y-107.38
X155.12Y-115.0
X157.04Y-80.0
X157.04Y-90.16
X162.5Y-109.88
X162.5Y-125.0
X165.0Y-109.88
X165.0Y-125.0
X167.5Y-85.0
X167.5Y-95.16
X172.5Y-84.84
X172.5Y-95.0
X177.5Y-82.5
X177.5Y-97.5
X180.0Y-82.5
X180.0Y-97.5
X184.96Y-84.84
X184.96Y-95.0
X185.0Y-118.87
X185.0Y-129.03
X185.04Y-101.37
X185.04Y-111.53
X189.787Y-96.552
X193.762Y-90.467
X196.262Y-90.467
X199.947Y-96.552
T4
X97.5Y-112.5
X97.5Y-130.0
X100.0Y-112.5
X100.0Y-130.0
X102.5Y-112.5
X102.5Y-130.0
X109.96Y-87.5
X109.96Y-90.04
X109.96Y-92.58
X110.0Y-72.46
X110.0Y-75.0
X110.0Y-77.54
X112.5Y-87.5
X112.5Y-90.04
X112.5Y-92.58
X112.54Y-72.46
X112.54Y-75.0
X112.54Y-77.54
X117.5Y-112.5
X117.5Y-130.0
X120.0Y-112.5
X120.0Y-130.0
X122.5Y-112.5
X122.5Y-130.0
X144.96Y-82.5
X144.96Y-85.04
X147.5Y-82.5
X147.5Y-85.04
X172.54Y-112.59
X172.54Y-130.0
X175.04Y-112.59
X175.04Y-130.0
X177.42Y-87.46
X177.42Y-90.0
X177.42Y-92.54
X177.46Y-72.5
X177.46Y-75.04
X177.46Y-77.58
X177.54Y-112.59
X177.54Y-130.0
X179.96Y-87.46
X179.96Y-90.0
X179.96Y-92.54
X180.0Y-72.5
X180.0Y-75.04
X180.0Y-77.58
X192.5Y-84.0
X192.5Y-112.5
X192.54Y-130.0
X195.0Y-84.0
X195.0Y-112.5
X195.04Y-130.0
X197.5Y-84.0
X197.5Y-112.5
X197.54Y-130.0
T4
X92.801Y-79.473G85X92.801Y-77.473
G05
X98.5Y-75.425G85X96.5Y-75.425
G05
X98.8Y-81.394G85X96.2Y-81.394
G05
X162.09Y-72.546G85X162.09Y-73.546
G05
X161.89Y-80.646G85X162.89Y-80.646
G05
X167.09Y-69.546G85X166.09Y-69.546
G05
X169.09Y-75.646G85X169.09Y-76.646
G05
X171.59Y-77.346G85X171.59Y-78.346
G05
M30
